<?xml version="1.0" encoding="UTF-8" standalone="no"?>
<svg
   xmlns:dc="http://purl.org/dc/elements/1.1/"
   xmlns:cc="http://creativecommons.org/ns#"
   xmlns:rdf="http://www.w3.org/1999/02/22-rdf-syntax-ns#"
   xmlns:svg="http://www.w3.org/2000/svg"
   xmlns="http://www.w3.org/2000/svg"
   xmlns:xlink="http://www.w3.org/1999/xlink"
   version="1.1"
   id="Layer_1"
   x="0px"
   y="0px"
   viewBox="0 0 296.35605 39.999999"
   xml:space="preserve"
   width="296.35605"
   height="40"><metadata
   id="metadata68"><rdf:RDF><cc:Work
       rdf:about=""><dc:format>image/svg+xml</dc:format><dc:type
         rdf:resource="http://purl.org/dc/dcmitype/StillImage" /><dc:title></dc:title></cc:Work></rdf:RDF></metadata><defs
   id="defs66"><linearGradient
     y2="564.51141"
     x2="941.68439"
     y1="564.51141"
     x1="911.87408"
     gradientUnits="userSpaceOnUse"
     id="SVGID_1_">
		<stop
   id="stop28"
   style="stop-color:#666766"
   offset="2.788190e-02" />
		<stop
   id="stop30"
   style="stop-color:#999999"
   offset="1" />
	</linearGradient></defs>
<style
   type="text/css"
   id="style2">
	.st0{fill:#077FB6;}
	.st1{fill:url(#SVGID_1_);}
	.st2{fill:url(#SVGID_2_);}
	.st3{fill:url(#SVGID_3_);}
	.st4{fill:url(#SVGID_4_);}
	.st5{fill:url(#SVGID_5_);}
	.st6{fill:url(#SVGID_6_);}
	.st7{fill:url(#SVGID_7_);}
	.st8{fill:url(#SVGID_8_);}
	.st9{fill:url(#SVGID_9_);}
	.st10{fill:url(#SVGID_10_);}
	.st11{fill:url(#SVGID_11_);}
	.st12{fill:url(#SVGID_12_);}
	.st13{fill:url(#SVGID_13_);}
	.st14{fill:url(#SVGID_14_);}
	.st15{fill:url(#SVGID_15_);}
	.st16{fill:#171717;}
	.st17{fill:url(#SVGID_16_);}
	.st18{fill:url(#SVGID_17_);}
	.st19{fill:url(#SVGID_18_);}
	.st20{fill:url(#SVGID_19_);}
	.st21{fill:url(#SVGID_20_);}
	.st22{fill:url(#SVGID_21_);}
	.st23{fill:url(#SVGID_22_);}
	.st24{fill:url(#SVGID_23_);}
	.st25{fill:url(#SVGID_24_);}
	.st26{fill:url(#SVGID_25_);}
	.st27{fill:url(#SVGID_26_);}
	.st28{fill:url(#SVGID_27_);}
	.st29{fill:url(#SVGID_28_);}
	.st30{fill:url(#SVGID_29_);}
	.st31{fill:url(#SVGID_30_);}
	.st32{fill:url(#SVGID_31_);}
	.st33{fill:url(#SVGID_32_);}
	.st34{fill:url(#SVGID_33_);}
	.st35{fill:url(#SVGID_34_);}
	.st36{fill:url(#SVGID_35_);}
	.st37{fill:url(#SVGID_36_);}
	.st38{fill:none;stroke:#000000;stroke-width:20;stroke-miterlimit:10;}
	.st39{fill:#3BB54A;}
	.st40{fill:#FFFFFF;}
	.st41{fill:url(#SVGID_37_);}
</style>



<linearGradient
   id="SVGID_3_"
   gradientUnits="userSpaceOnUse"
   x1="58.315601"
   y1="517.87628"
   x2="237.0062"
   y2="517.87628"
   xlink:href="#SVGID_1_">
	<stop
   offset="2.788190e-02"
   style="stop-color:#666766"
   id="stop48" />
	<stop
   offset="1"
   style="stop-color:#999999"
   id="stop50" />
</linearGradient>


<path
   style="fill:#ffffff;stroke-width:0.33543587;fill-opacity:1"
   id="path4"
   d="M 87.714916,30.440077 H 81.844788 V 20.209283 H 73.156999 V 30.440077 H 67.253327 V 5.9197146 h 5.903672 v 9.7276404 h 8.687789 V 5.9197146 h 5.870128 z"
   class="st0" /><path
   style="fill:#ffffff;stroke-width:0.33543587;fill-opacity:1"
   id="path6"
   d="m 101.46779,30.440077 c -0.20126,-0.368979 -0.36898,-0.905676 -0.5367,-1.643635 -1.039851,1.3082 -2.515769,1.979071 -4.360667,1.979071 -1.710723,0 -3.18664,-0.503154 -4.360666,-1.543005 -1.207569,-1.039851 -1.811354,-2.348051 -1.811354,-3.9246 0,-1.979071 0.737959,-3.454989 2.180333,-4.461297 1.442375,-1.006307 3.589164,-1.509461 6.373282,-1.509461 h 1.744262 v -0.972764 c 0,-1.67718 -0.737954,-2.515769 -2.180329,-2.515769 -1.341743,0 -2.012615,0.670871 -2.012615,1.979071 H 90.83447 c 0,-1.744266 0.737959,-3.186641 2.24742,-4.293579 1.509462,-1.106938 3.421446,-1.643636 5.735954,-1.643636 2.314506,0 4.159406,0.570241 5.501146,1.710723 1.34175,1.140482 2.04616,2.683487 2.0797,4.662559 v 8.050461 c 0.0335,1.677179 0.26835,2.951836 0.77151,3.823969 v 0.301892 z m -3.555623,-3.723338 c 0.704415,0 1.3082,-0.167718 1.744266,-0.46961 0.469607,-0.301892 0.805047,-0.637328 1.006307,-1.039851 v -2.918292 h -1.643635 c -1.979071,0 -2.951835,0.872133 -2.951835,2.649943 0,0.503154 0.167717,0.93922 0.536697,1.241113 0.301892,0.368979 0.771502,0.536697 1.3082,0.536697 z"
   class="st0" /><path
   style="fill:#ffffff;stroke-width:0.33543587;fill-opacity:1"
   id="path8"
   d="m 126.39067,21.450396 c 0,2.817661 -0.63733,5.098625 -1.91198,6.775805 -1.27466,1.677179 -2.98538,2.549312 -5.16571,2.549312 -1.67718,0 -3.05247,-0.603784 -4.12587,-1.844897 v 8.486528 h -5.66886 V 12.192366 h 5.29989 l 0.16771,1.677179 c 1.0734,-1.341744 2.51577,-2.012615 4.29358,-2.012615 2.24742,0 3.99169,0.838589 5.2328,2.482225 1.24111,1.643636 1.87844,3.9246 1.87844,6.809349 z m -5.66886,-0.335436 c 0,-3.220184 -0.93922,-4.86382 -2.81766,-4.86382 -1.34175,0 -2.24743,0.46961 -2.68349,1.442374 v 7.178328 c 0.50315,1.006307 1.40883,1.509461 2.71703,1.509461 1.81135,0 2.75057,-1.543005 2.78412,-4.662558 z"
   class="st0" /><path
   style="fill:#ffffff;stroke-width:0.33543587;fill-opacity:1"
   id="path10"
   d="m 145.81241,21.450396 c 0,2.817661 -0.63733,5.098625 -1.91198,6.775805 -1.27466,1.677179 -2.98538,2.549312 -5.16572,2.549312 -1.67718,0 -3.05246,-0.603784 -4.12586,-1.844897 v 8.486528 h -5.66886 V 12.192366 h 5.29988 l 0.16772,1.677179 c 1.0734,-1.341744 2.51577,-2.012615 4.29358,-2.012615 2.24742,0 3.99169,0.838589 5.2328,2.482225 1.24111,1.643636 1.87844,3.9246 1.87844,6.809349 z m -5.66887,-0.335436 c 0,-3.220184 -0.93922,-4.86382 -2.81766,-4.86382 -1.34174,0 -2.24742,0.46961 -2.68348,1.442374 v 7.178328 c 0.50315,1.006307 1.40883,1.509461 2.71703,1.509461 1.81135,0 2.75057,-1.543005 2.78411,-4.662558 z"
   class="st0" /><path
   style="fill:#ffffff;stroke-width:0.33543587;fill-opacity:1"
   id="path12"
   d="m 155.40588,22.490247 3.01892,-10.264338 h 6.07139 l -7.41313,21.233091 -0.33544,0.771503 c -1.03985,2.348051 -2.91829,3.522077 -5.60178,3.522077 -0.73796,0 -1.50946,-0.100631 -2.34805,-0.335436 v -4.025231 h 0.73796 c 0.80504,0 1.40883,-0.100631 1.81135,-0.335436 0.43607,-0.234805 0.73796,-0.637328 0.93922,-1.241112 l 0.46961,-1.20757 -6.33973,-18.381886 h 6.07138 z"
   class="st0" /><path
   style="fill:#ffffff;stroke-width:0.33543587;fill-opacity:1"
   id="path14"
   d="m 186.06472,22.121268 c -0.0671,1.710723 -0.5367,3.220184 -1.37529,4.528384 -0.83859,1.3082 -2.01262,2.314508 -3.55562,3.052466 -1.50946,0.704416 -3.25373,1.073395 -5.19926,1.073395 -3.22018,0 -5.76949,-1.039851 -7.61439,-3.153097 -1.8449,-2.113246 -2.78412,-5.065082 -2.78412,-8.889051 v -1.207569 c 0,-2.415138 0.40252,-4.494841 1.24111,-6.306195 0.83859,-1.8113533 2.04616,-3.1866404 3.62271,-4.1594044 1.57655,-0.9727641 3.3879,-1.4759179 5.46761,-1.4759179 2.98537,0 5.36697,0.7715025 7.17832,2.3480512 1.81136,1.5765486 2.81766,3.7233381 3.08601,6.4739121 h -5.90367 c -0.0335,-1.475918 -0.43606,-2.549312 -1.14048,-3.220184 -0.70442,-0.637328 -1.77781,-0.972764 -3.22018,-0.972764 -1.47592,0 -2.54932,0.536697 -3.22019,1.643636 -0.67087,1.106938 -1.03985,2.851205 -1.07339,5.266343 v 1.744267 c 0,2.616399 0.33543,4.49484 0.97276,5.601779 0.67087,1.106938 1.77781,1.677179 3.3879,1.677179 1.34175,0 2.3816,-0.335436 3.11956,-0.972764 0.70441,-0.637328 1.10693,-1.643636 1.14048,-3.052466 z"
   class="st0" /><path
   style="fill:#ffffff;stroke-width:0.33543587;fill-opacity:1"
   id="path16"
   d="m 187.87607,21.148504 c 0,-1.811354 0.36898,-3.421446 1.07339,-4.863821 0.70442,-1.40883 1.71073,-2.515769 3.05247,-3.287271 1.3082,-0.771503 2.88475,-1.140482 4.66256,-1.140482 2.71703,0 4.86382,0.838589 6.44037,2.549312 1.57655,1.67718 2.34805,3.991687 2.34805,6.876436 v 0.201261 c 0,2.851205 -0.80505,5.098626 -2.38159,6.742262 -1.57655,1.677179 -3.72334,2.515769 -6.40683,2.515769 -2.58286,0 -4.66256,-0.771503 -6.23911,-2.314508 -1.57655,-1.543005 -2.41514,-3.656251 -2.54931,-6.306194 z m 5.66887,0.368979 c 0,1.677179 0.26834,2.918292 0.80504,3.689795 0.5367,0.771502 1.3082,1.174025 2.34805,1.174025 2.01262,0 3.05247,-1.543005 3.08601,-4.662558 v -0.570241 c 0,-3.253728 -1.03985,-4.897364 -3.11955,-4.897364 -1.91198,0 -2.91829,1.40883 -3.08601,4.226492 z"
   class="st0" /><path
   style="fill:#ffffff;stroke-width:0.33543587;fill-opacity:1"
   id="path18"
   d="m 207.23072,21.182047 c 0,-2.884748 0.63733,-5.165712 1.87844,-6.809348 1.24111,-1.643636 2.98538,-2.482226 5.2328,-2.482226 1.64364,0 2.98538,0.637328 4.09232,1.911985 V 4.5779711 h 5.70241 V 30.440077 h -5.09863 l -0.30189,-1.945528 c -1.17402,1.509462 -2.64994,2.280964 -4.42775,2.280964 -2.18034,0 -3.89106,-0.838589 -5.16572,-2.482225 -1.27465,-1.67718 -1.91198,-4.058774 -1.91198,-7.111241 z m 5.66887,0.36898 c 0,3.220184 0.93922,4.86382 2.81766,4.86382 1.24111,0 2.14679,-0.536698 2.68348,-1.576549 v -6.943522 c -0.50315,-1.073395 -1.40883,-1.610093 -2.64994,-1.610093 -1.74427,0 -2.68349,1.408831 -2.8512,4.226492 z"
   class="st0" /><path
   style="fill:#ffffff;stroke-width:0.33543587;fill-opacity:1"
   id="path20"
   d="m 236.14529,30.775513 c -2.78411,0 -5.06508,-0.838589 -6.7758,-2.515769 -1.74427,-1.677179 -2.58286,-3.823969 -2.58286,-6.507456 v -0.46961 c 0,-1.878441 0.33544,-3.522077 1.03985,-4.930908 0.70442,-1.40883 1.71073,-2.515769 3.01893,-3.320815 1.3082,-0.771502 2.88474,-1.174025 4.6961,-1.174025 2.54931,0 4.56193,0.805046 6.07139,2.381594 1.47592,1.576549 2.21387,3.790426 2.21387,6.641631 v 2.213877 h -11.27064 c 0.20126,1.006307 0.63733,1.811353 1.34174,2.415138 0.67087,0.570241 1.57655,0.872133 2.64995,0.872133 1.81135,0 3.18664,-0.637328 4.19294,-1.878441 l 2.58286,3.052467 c -0.70441,0.972764 -1.71072,1.744266 -3.01892,2.314507 -1.27466,0.603785 -2.64995,0.905677 -4.15941,0.905677 z M 235.50796,16.25114 c -1.67717,0 -2.64994,1.106938 -2.95183,3.287271 h 5.73595 v -0.436066 c 0.0335,-0.905677 -0.20126,-1.610093 -0.70441,-2.113246 -0.46961,-0.469611 -1.17403,-0.737959 -2.07971,-0.737959 z"
   class="st0" /><path
   style="fill:#ffffff;stroke-width:0.33543587;fill-opacity:1"
   id="path22"
   d="m 257.14358,17.358078 -1.87844,-0.134174 c -1.77781,0 -2.91829,0.570241 -3.42145,1.677179 v 11.538994 h -5.70241 V 12.225909 h 5.33343 l 0.20126,2.348051 c 0.93922,-1.77781 2.28097,-2.683487 3.99169,-2.683487 0.60379,0 1.14048,0.06709 1.57655,0.201262 z"
   class="st0" /><path
   style="fill:#ffffff;stroke-width:0.33543587;fill-opacity:1"
   id="path24"
   d="m 268.71612,25.307908 c 0,-0.46961 -0.26835,-0.872133 -0.77151,-1.174025 -0.50315,-0.301892 -1.47591,-0.603785 -2.88474,-0.905677 -1.40883,-0.301892 -2.58286,-0.737959 -3.48854,-1.241113 -0.90567,-0.503154 -1.61009,-1.140482 -2.11324,-1.844897 -0.46961,-0.737959 -0.73796,-1.576549 -0.73796,-2.515769 0,-1.67718 0.70441,-3.052467 2.0797,-4.125862 1.37529,-1.073394 3.18664,-1.610092 5.43406,-1.610092 2.41514,0 4.32712,0.536698 5.80304,1.643636 1.44238,1.073395 2.18034,2.515769 2.18034,4.293579 h -5.70241 c 0,-1.442374 -0.77151,-2.180333 -2.31451,-2.180333 -0.60379,0 -1.10694,0.167718 -1.50946,0.503154 -0.40253,0.335436 -0.60379,0.737959 -0.60379,1.241113 0,0.503154 0.23481,0.905677 0.73796,1.241112 0.50315,0.301893 1.27466,0.570241 2.34805,0.771503 1.0734,0.201261 2.04616,0.436067 2.85121,0.737959 2.75057,0.93922 4.09231,2.6164 4.09231,5.065082 0,1.677179 -0.73795,3.018923 -2.21387,4.058774 -1.47592,1.039851 -3.3879,1.576548 -5.73596,1.576548 -1.57654,0 -2.95183,-0.268348 -4.1594,-0.838589 -1.20757,-0.570241 -2.18033,-1.3082 -2.85121,-2.280964 -0.67087,-0.972764 -1.03985,-1.979072 -1.03985,-3.052467 h 5.29989 c 0.0335,0.83859 0.30189,1.442375 0.83859,1.844898 0.5367,0.402523 1.24111,0.570241 2.0797,0.570241 0.7715,0 1.34175,-0.167718 1.74427,-0.469611 0.43607,-0.402523 0.63733,-0.805046 0.63733,-1.3082 z"
   class="st0" /><path
   style="fill:#ffffff;stroke-width:0.33543587;fill-opacity:1"
   id="path26"
   d="m 280.3222,24.938929 c 0.90568,0 1.64363,0.268349 2.24742,0.805046 0.60378,0.536698 0.90568,1.207569 0.90568,2.046159 0,0.83859 -0.3019,1.509461 -0.90568,2.046159 -0.60379,0.536697 -1.34174,0.805046 -2.24742,0.805046 -0.90568,0 -1.64364,-0.268349 -2.24742,-0.805046 -0.60379,-0.536698 -0.87214,-1.207569 -0.87214,-2.046159 0,-0.805046 0.3019,-1.509461 0.87214,-2.046159 0.60378,-0.536697 1.34174,-0.805046 2.24742,-0.805046 z"
   class="st0" /><path
   style="fill:#81c1e0;fill-opacity:1;stroke-width:0.33543587"
   id="path33"
   d="m 296.35603,25.811062 c 0,1.475918 -0.43606,2.683487 -1.3082,3.589164 -0.87213,0.905677 -2.04616,1.375287 -3.45499,1.375287 h -0.2348 c -0.97277,0 -1.8449,-0.167718 -2.6164,-0.536697 -0.73796,-0.36898 -1.34174,-0.905677 -1.74427,-1.610092 -0.40252,-0.704416 -0.60378,-1.543005 -0.60378,-2.482226 0,-1.341743 0.43606,-2.415138 1.27465,-3.220184 0.83859,-0.771503 2.01262,-1.174026 3.52208,-1.174026 h 1.17403 v 5.970759 c 0.53669,-0.100631 0.97276,-0.335436 1.27465,-0.704416 0.3019,-0.368979 0.46961,-0.838589 0.46961,-1.40883 0,-0.939221 -0.33543,-1.67718 -1.0063,-2.213877 l 1.61009,-1.375287 c 0.50315,0.368979 0.93922,0.905677 1.24111,1.576548 0.23481,0.670872 0.40252,1.408831 0.40252,2.213877 z m -7.68148,0.335436 c 0,0.872133 0.57024,1.408831 1.74427,1.576549 v -3.018923 h -0.23481 c -0.46961,0 -0.83859,0.100631 -1.10694,0.368979 -0.26834,0.234805 -0.40252,0.603785 -0.40252,1.073395 z"
   class="st1" /><path
   style="fill:#81c1e0;fill-opacity:1;stroke-width:0.33543587"
   id="path40"
   d="m 295.11492,14.775222 c 0.80505,0.637328 1.20757,1.509461 1.20757,2.582856 0,1.073395 -0.30189,1.844897 -0.93922,2.415138 -0.60379,0.536698 -1.50946,0.805047 -2.64994,0.805047 h -6.23911 V 17.55934 h 6.27265 c 0.83859,0 1.24111,-0.402523 1.24111,-1.20757 0,-0.704415 -0.2348,-1.174025 -0.73796,-1.475917 h -6.7758 V 11.85693 h 9.62701 v 2.817661 z"
   class="st2" /><path
   class="st0"
   d="m 45.315821,3.5381198 c -3.9246,0 -7.077697,3.1530973 -7.077697,7.0776972 0,3.9246 3.153097,7.077697 7.077697,7.077697 3.9246,0 7.077697,-3.186641 7.077697,-7.077697 0,-3.9245999 -3.153097,-7.0776972 -7.077697,-7.0776972 z m 1.543005,8.6207022 c -0.83859,0.83859 -2.213877,0.83859 -3.08601,0 -0.83859,-0.83859 -0.83859,-2.2138768 0,-3.0860101 0.83859,-0.8385897 2.213877,-0.8385897 3.08601,0 0.83859,0.8385897 0.83859,2.2138771 0,3.0860101 z"
   id="path44"
   style="fill:#ffffff;stroke-width:0.33543587;fill-opacity:1" /><path
   class="st0"
   d="m 15.260764,5.9197146 c -2.851205,0 -5.165712,2.3145076 -5.165712,5.1657124 0,2.851205 2.314507,5.165713 5.165712,5.165713 2.851205,0 5.165713,-2.314508 5.165713,-5.165713 0,-2.8512048 -2.314508,-5.1657124 -5.165713,-5.1657124 z m 1.106939,6.2726514 c -0.603785,0.603784 -1.610092,0.603784 -2.247421,0 -0.637328,-0.603785 -0.603784,-1.610093 0,-2.2474208 0.603785,-0.6373282 1.610093,-0.6037846 2.247421,0 0.637328,0.6373278 0.637328,1.6100918 0,2.2474208 z"
   id="path46"
   style="fill:#ffffff;stroke-width:0.33543587;fill-opacity:1" /><path
   class="st3"
   d="M 59.974369,5.8190838 C 57.726948,7.3285453 57.559231,9.8443144 56.955446,12.158822 56.251031,14.808765 55.31181,17.257447 52.963759,18.96817 48.3012,22.42316 38.372298,22.087724 34.850221,15.144201 34.045175,13.601196 33.508476,11.924017 32.837604,10.280381 32.669887,9.9114016 32.602799,9.5088785 32.435081,9.139899 31.831297,7.7981555 30.489553,7.2279145 29.114266,7.7310683 28.845918,7.8316991 28.611112,8.1335914 28.510482,8.3683965 28.175046,9.2740734 27.873153,10.17975 27.571261,11.118971 c -0.93922,3.018923 -2.515769,5.668866 -4.930907,7.748569 -2.14679,1.844897 -4.76319,2.24742 -7.48022,2.280964 -2.415139,0.03354 -4.729646,-0.335436 -6.9435231,-1.408831 C 6.7071494,19.001714 5.4995803,17.894776 4.9293393,16.284683 4.0907496,13.869545 3.3192472,11.420863 2.4471139,9.0057247 2.2458524,8.4354837 2.0110473,7.7646119 1.6085242,7.3620889 0.03197555,5.9197146 -0.20282957,4.1419044 0.13260631,2.0957456 1.9439601,1.6932225 3.7888573,1.3577866 5.6337546,0.88817639 11.436795,-0.55419789 17.172749,-0.01750048 22.841615,1.3913302 c 5.065082,1.2411128 10.029533,1.0733948 15.061073,0 2.918292,-0.60378457 5.870128,-1.0733948 8.821964,-1.34174351 2.985379,-0.23480511 5.937215,0.40252306 8.821963,1.10693841 1.006308,0.2348051 2.012616,0.4696102 2.98538,0.7379589 0.46961,0.1341744 0.93922,0.4360667 1.375287,0.6708718 0.06709,1.140482 0.06709,2.1803332 0.06709,3.253728 z M 15.294308,1.894484 C 14.254457,1.9951148 12.543734,2.0286584 10.900098,2.2970071 9.5248108,2.5318122 8.1495237,2.8672481 6.8413238,3.3704019 5.4660367,3.9406429 4.7951649,5.1146685 4.7616213,6.6576735 c -0.067087,2.851205 0.6373282,5.5346925 1.6100923,8.1510915 0.5031538,1.3082 1.3752871,2.381595 2.5493126,3.186641 1.4088308,0.939221 3.0189228,1.207569 4.6290148,1.3082 4.360667,0.335436 8.016918,-0.972764 10.297882,-4.930907 0.972764,-1.643636 1.643636,-3.522077 2.180333,-5.3334307 C 26.866846,6.3222376 25.961169,4.5444275 23.378313,3.4039455 21.030262,2.3640943 18.514492,1.9280276 15.294308,1.894484 Z m 30.524667,0 c -3.958144,0.067087 -6.842892,0.4696103 -9.459292,1.9119845 -1.509462,0.8050462 -2.381595,2.0797025 -2.14679,3.8575127 0.100631,0.9056768 0.268349,1.8113537 0.570241,2.6499438 0.872134,2.448682 1.811354,4.897363 3.891056,6.64163 2.884749,2.415138 6.239108,2.784118 9.861815,2.180333 2.582857,-0.436066 4.528385,-1.677179 5.534692,-4.125861 1.140482,-2.784118 1.811354,-5.6688664 1.643636,-8.6877894 C 55.647246,5.2823864 55.244723,4.4102531 54.37259,3.8400121 53.735261,3.4039455 52.997303,3.0014224 52.259344,2.8672481 49.743575,2.3976379 47.261349,2.0957456 45.818975,1.894484 Z"
   id="path53"
   style="fill:#81c1e0;fill-opacity:1;stroke-width:0.33543587" /><g
   style="fill:#ffffff;fill-opacity:1"
   id="g57"
   transform="matrix(0.33543588,0,0,0.33543588,-19.523936,-163.10643)">
	<path
   class="st0"
   d="m 144.9,605.5 c -0.1,0 -0.3,0 -0.4,0 -24.3,-0.2 -42.7,-21.1 -48.1,-27.9 -0.9,-1.1 -0.7,-2.8 0.5,-3.6 l 0.5,-0.4 c 1.1,-0.8 2.6,-0.6 3.4,0.5 4.9,6.2 22.1,25.6 43.7,25.8 14.6,0.1 28.6,-8.5 41.7,-25.7 0.8,-1.1 2.4,-1.3 3.5,-0.5 l 0.5,0.4 c 1.1,0.8 1.4,2.4 0.5,3.6 -14,18.4 -29.4,27.8 -45.8,27.8 z"
   id="path55"
   style="fill:#ffffff;fill-opacity:1" />
</g><g
   style="fill:#ffffff;fill-opacity:1"
   id="g61"
   transform="matrix(0.33543588,0,0,0.33543588,-19.523936,-163.10643)">
	<path
   class="st0"
   d="m 195,582.5 -13.2,-10 c -1.1,-0.8 -1.3,-2.4 -0.5,-3.5 l 0.4,-0.5 c 0.8,-1.1 2.4,-1.3 3.5,-0.5 l 13.2,10 c 1.1,0.8 1.3,2.4 0.5,3.5 l -0.4,0.5 c -0.8,1.2 -2.4,1.4 -3.5,0.5 z"
   id="path59"
   style="fill:#ffffff;fill-opacity:1" />
</g>
</svg>